<?xml version="1.0" encoding="utf-8"?>
<!-- Generator: Adobe Illustrator 26.5.0, SVG Export Plug-In . SVG Version: 6.00 Build 0)  -->
<svg version="1.1" id="Laag_2" xmlns="http://www.w3.org/2000/svg" xmlns:xlink="http://www.w3.org/1999/xlink" x="0px" y="0px"
	 viewBox="0 0 1366 768" style="enable-background:new 0 0 1366 768;" xml:space="preserve">
<style type="text/css">
	.st0{fill:none;stroke:#1D1D1B;stroke-width:2;stroke-linecap:round;stroke-linejoin:round;stroke-miterlimit:10;}
	.st1{fill:#1D1D1B;stroke:#1D1D1B;stroke-width:2;stroke-linecap:round;stroke-linejoin:round;stroke-miterlimit:10;}
</style>
<g>
	<path class="st0" d="M692.7,629.1c-9.9-37.8-18.6-85.2-20.4-140.1c-1.1-34.4,0.7-65.6,3.8-93"/>
	<path class="st0" d="M716.9,376.9c-13.3,5.4-35,11.8-61.1,8.9c-13.4-1.5-38.9-6.6-39.5-15.3c-0.6-9.2,27.6-17.8,31.8-19.1
		c31.2-9.5,41.3,6,62.4-2.5c8.7-3.5,19.4-17.6,40.8-45.9c16.5-21.8,24.8-32.9,25.5-40.8c1.9-21.6-15.5-29.6-12.7-54.8
		c1.2-11,6.2-26.6,14-26.7c12.2-0.2,2.2,10,18.5,37c8.1,13.4,23.1,18.8,28.6,36.9c11.6,38.4,0.4,70.9-5.1,123.5
		c-7.2,68.5-10.8,102.7,5.1,126.1c24.7,36.4,68.1,31,93,80.2c6.9,13.7,11.3,29.3,6.4,33.1c-6.1,4.7-20.9-13.6-42-14
		c-18.3-0.4-38.7,23-49.6,35.6"/>
	<path class="st0" d="M763.8,213.5c-3.2,7.4-18.1,32.6-23.9,47.6c-15.8,40.9-18.3,55.8-31.8,62.4c-4.1,2-13.4,1.4-31.8,0
		c-38-2.9-48.6-6.7-67.5-2.5c-6.3,1.4-25.9,5.6-26.7,14c-0.7,6.7,25.4,20.5,42.6,26.2"/>
	<path class="st0" d="M678.7,653.3c-33.3-17.9-39.6-26.9-38.2-31.8c2.1-7.5,21.4-4.4,25.5-14c6.3-14.9-34.1-38.4-28-52.2
		c3-6.8,16.4-9.7,22.9-5.1c6.5,4.6,4.8,15.6,5.1,24.4c1.2,39.4,42.8,73.7,49.7,69.9c3.8-2.1-3.2-16-5.1-53.5
		c-0.8-15.8,0-23.7,5.1-30.6c8.3-11.1,24.3-14.8,26.7-11.5c2.2,2.9-7.3,9.4-11.5,25.7c-1.4,5.6-3.2,12.7-1.3,20.2
		c4.5,17.1,25.3,24.9,36.9,29.3c13.5,5,20.9,7.8,29.3,5.1c14.1-4.6,12.9-19,30.6-39.5c14.9-17.3,36.5-31.1,42-26.7
		c3.5,2.7,0.9,12.6-2.5,19.1c-8.5,16.2-23.8,13.9-31.8,26.7c-9.1,14.6-3.5,40,7.6,44.6c10.5,4.4,18.7-12.8,45.9-19.1
		c17.8-4.2,38.9-2.6,40.8,3.8c2.3,8.1-27.1,23.1-31.8,25.5"/>
	<path class="st0" d="M370.4,528.7c-5.5-10.9-8.1-43.3-6-62.8c1.8-16.6,3.3-21.1,0-35.3c-3.9-16.9-9.9-36.6-16.3-48.8
		c-7.6-14.6-18.3-47.4-18.1-56.1c0.5-24,27.1-44.5,32.6-41.1c3.7,2.3-6.2,26.6-1.3,39.1c5.1,13.1,55.3,11.8,69.6,14.7"/>
	<path class="st0" d="M316.1,529.9c-13.1-28.7,7.3-55.6,9-78.6c1.5-20-57.7-58.1-65.3-107.6c-3.3-21.6,2.7-38.9,6-48.3
		c11-31.6,40.3-57.2,72.5-74.9c15-8.3,45.8-16.2,78.6-14.5c6.6,0.3,17.5-0.8,25.4-8.5c10.5-10.3,6.2-13.5,15.5-19.1
		c9.3-5.6,23.5-8.5,31.7-1.5c7.4,6.3,10.7,17.5,12.1,21.7"/>
	<path class="st0" d="M426.6,228.9c-6.5-10.7-26.2-9.9-32.6-3.6c-2.8,2.7-5.1,8.4,1.2,30.2c8,27.6,13.2,45.3,29,60.4
		c26,24.9,25.3,27.8,59.1,39.3c4.7,1.6,33.3,10.6,47.3,18.7c11.7,6.8,28.5,16.5,35.1,10.9c4.9-4.3,3.5-16.9-2.4-24.2
		c-2.7-3.4-5.9-5-6.9-5.5c-7.7-3.7-16.1-1.7-16.1-1.8c0,0,7-5.3,13.1-5.3c3.9,0,2.9-9.7-2.1-8c-3.7,1.2-14.2,2.1-27.2,3.6
		c-29.1,3.2-54.1-29.8-57.6-31.4C433.4,297.1,436.7,245.3,426.6,228.9z"/>
	<path class="st0" d="M402.2,278.3c-1.1,1.3-9.8,13.8-8.4,21.5c1.6,8.9,18.7,16.2,30.5,16.2"/>
	<path class="st0" d="M515.8,258.3c1.8-2.1,14.4-16.9,12.9-30.5c-1.8-15.2-15.1-29.6-32.3-29.6c-15.9,0-29.4,12.3-31.2,23.8
		c-1.7,10.5,6.6,17.5,2.6,25.1c-3,5.8-10.6,3-16.4,8.3c-4.4,4.1-9.6,18.5-6.9,34"/>
	<path class="st0" d="M435.4,326.9c-2.7,5.2-7.7,20.6-14.8,28.5c-15.8,17.6-16.1,44.6-3.7,70.9c4.1,8.8,2.2,22.7,2.1,49.2
		c0,17.5-1.5,42.1-1.9,52.1"/>
	<path class="st0" d="M459.8,523.8c2.7-25.1,6.5-56.1,11.6-84.3c5.2-28.3,11.7-57.6,18-82.2"/>
	<path class="st0" d="M495.2,336.3c-1.1-22.3,10-41.7,12.3-44.4c9.6-11.2,34.5-6.3,63.5-0.5c14.9,2.9,17.6,4.8,29.6,5.8
		c22.2,1.9,41.8-2,41.8-4.2c0-1.6-9.5-0.9-24.4-5.8c-12.2-4-16-7.8-24.9-11.6c-14.8-6.3-21.7-3.4-39.7-5.8
		c-39.4-5.4-54.3-26.2-68.8-17.5c-3.3,2-7.6,6.2-10.1,15.9"/>
	<path class="st0" d="M344.1,529.3c4-11.8,9-50.3,19.9-59.1"/>
	<path class="st0" d="M321.2,343.7c8.2,14.7,16.5,32,24,51.7c4.5,12,17.8,45.6,20.8,56.3"/>
	<circle class="st1" cx="797" cy="274.3" r="2.4"/>
	<path class="st0" d="M435.4,260.8c0.8-1.1,11.5-16.4,17.7-17.2c5.2-0.7,13.1,2.8,14.6,3.4"/>
</g>
</svg>
