<?xml version="1.0" encoding="utf-8"?>
<!-- Generator: Adobe Illustrator 26.5.0, SVG Export Plug-In . SVG Version: 6.00 Build 0)  -->
<svg version="1.1" id="Laag_1" xmlns="http://www.w3.org/2000/svg" xmlns:xlink="http://www.w3.org/1999/xlink" x="0px" y="0px"
	 viewBox="0 0 1366 768" style="enable-background:new 0 0 1366 768;" xml:space="preserve">
<style type="text/css">
	.st0{fill:none;stroke:#1D1D1B;stroke-width:2;stroke-linecap:round;stroke-linejoin:round;stroke-miterlimit:10;}
	.st1{fill:#1D1D1B;stroke:#1D1D1B;stroke-width:2;stroke-linecap:round;stroke-linejoin:round;stroke-miterlimit:10;}
</style>
<g>
	<path class="st0" d="M165.3,665.7c11.3-8.3,28-22,45-41.7c35.3-41.1,35.6-56.7,50.1-70.8c25.1-24.5,56.8-11,99-34.5
		c13.4-7.5,32.1-30.5,42.8-19.7c11.7,11.8-6.8,22-16.4,35.1c-10.7,14.4-17.5,18-32,38.1c-2.8,4-22.8,46.4-20.7,47.5
		c2.8,1.4,14-31.3,47.2-57c8.8-6.8,34.2-28,41.7-15.4c7.2,12.1-15.9,24.6-31,42.8c-14,16.8-17.9,36.7-24.9,54.8
		c-6.6,17.1-7.3,32.8-7.7,43.9"/>
	<path class="st0" d="M441.3,704.9c-2.9-13.4-5.1-30.6-3.4-50.3c3.9-47.3,29.8-116,77.1-131.6c15.3-5,32.9-4.5,43.4-19.3
		c7.8-10.9,6.5-23,16.5-27.6c6.9-3.2,16.9-1.7,20,3.4c3.8,6.4-4.2,16.2-13.1,31c-17.2,28.7-27.7,60.4-24.1,62.7
		c2.9,1.8,18.2-13.8,29.6-31.7c17.2-27,24.1-44.7,34.7-51.2c9.5-5.7,15.5-2.2,14.2,9.1c-1.6,13.7-22.7,39.3-22.7,39.3
		c0,0-18.8,24.8-26.2,44.8c-12.9,35,3.6,70.3,9.6,84.7c6.9,16.6,15.5,29,22,37.2"/>
	<path class="st0" d="M867,603.7c-20.7-15-32-31.1-37.9-41.3c-3.1-5.3-8.5-14.7-12.4-28.2c-7.7-26.7-1.6-42.4-11.7-48.9
		c-5.5-3.5-13.8-3.1-17.9,0.7c-5.1,4.8-1.6,13-2.1,23.4c-1,25.2-24.1,46.2-28.2,44.1c-2.4-1.2,2.8-9.5,3.4-27.6
		c0.7-18.4-0.1-22.7-3.4-41.3c-0.9-5.3-5.4-25.5,8.3-28.2c12-2.4,14.6,10.1,15.2,11.7c2.1,6.3,6.1,15.9,6.9,17.9"/>
	<path class="st0" d="M756.1,488.2c-4,2.3-17.1,10.5-22.1,16.3c-25.8,29.4-12.1,79.3-4.1,108.1c5,18.3,14.4,44.4,33.1,73"/>
	<path class="st0" d="M995.1,685.6c3.7-30.5,4.3-55.6,4.1-73.7c-0.4-38.2-0.6-57.4-4.1-75.8c-3.4-17.9-8.5-34.5-2.1-38.6
		c3.8-2.4,13-1.4,15.2,4.1c4.3,10.8,13.4,82.2,4.1,101.3"/>
	<path class="st0" d="M1010.1,504c16-7.2,21,18.4,29,25c5.8,4.8,26.1,12,41.3,23c19.3,14,48.8,69.4,60.6,113.6
		c2.7,10,4.3,24.2,4.8,41.3"/>
	<path class="st0" d="M804.3,125c-20.1,2.2-29.8,21.6-31,24.1c-7.1,14.7-5.6,33.3,4.8,46.8c10.3,13.3,30.4,23.2,46.1,15.8
		c13.3-6.3,17-21.9,18.6-28.9c3.5-14.8,2.8-39.6-14.5-51.7C817.7,123.7,806,124.8,804.3,125z"/>
	<path class="st0" d="M794.3,209.4c-5.1,6.2-12.9,4-13.4,24.6c-0.4,15.7-5.3,43.5-13.8,57.7c-13.5,22.4-26.9,34.5-43.4,38.6
		c-18.6,4.6-29.1-5.2-34.5,1.4c-3.9,4.8,0.1,16.1,6.9,22c9.4,8.3,22.8,5.2,27.6,4.1c14-3.2,20.5-6.1,35.8-19.2
		c31.6-26.8,35.5-31,40-47.9c4-15.3,4.7-27.8,6.8-28.7c2.5-1,15.7,16.7,20.7,39.9c3.7,17.2,0.1,25.1-0.7,44.1
		c-0.4,10.2,0.1,19.1,12.4,77.1c5,23.5,19.2,86.4,14.5,65.4c0-3.7,11.8,51.1,15.2,95.1c1.2,15.9,0.7,25.2-4.1,34.4
		c-4.1,7.7-17.8,19.4-16.3,23c2.2,5.2,14.4,13.6,23.8,8.2c11.9-6.8,25.5-37.7,25.5-48.5c0-16.5-4.9-54.3-5.4-73.6
		c-0.7-29.4-3.4-35-4.3-58.7c-1.5-39.6,1.4-91.6,4.6-96.7c3-4.8,5.1-12.5,11.9-12.1c8.9,0.6,21.7,42.8,48.9,75.1
		c17.4,20.8,36.9,35.6,55.1,66.8"/>
	<path class="st0" d="M897.3,605.4c33.7,2.8,50.3-2.7,57.2,2.1c9.5,6.6-2.4,26.8-12.4,35.8c-16.3,14.7-38,9.5-39.9,9"/>
	<path class="st0" d="M844.5,168.1c14-3.3,40.3-7.9,56.2,2.3c11.7,7.5,14.2,16.1,22,31.7c9,17.9,52.7,95.6,73,112.3
		c10.5,8.6,17.2,14.1,28.2,18.6c15.1,6.2,24.6,4.9,26.9,11c2.5,6.9-5.8,18.2-15.8,22c-12.5,4.8-24.8-3.2-28.2-5.5
		c-4.3-2.8-6.3-5.4-15.8-17.2c-8.6-10.7-29-35.6-41.5-47.5c-11-10.5-41.5-72.2-45.9-69.6c-4.3,2.6-3,19.7,0.7,32.4
		c4.3,14.5,11,21.4,32.4,48.2c16.2,20.3,24.4,30.5,26.9,35.1c11.9,22,11.8,27.7,23.2,55.4c8.5,20.7,20.5,38.8,27.1,47.2
		c18.1,23.3,18.4,25.9,27.7,45.2c6.9,14.3,20.1,42,20.2,51.1"/>
	<path class="st0" d="M828.4,131.2c6-13,13.3-19.5,17.1-19.7c10.3-0.6,13.4,18,31.6,24c11.3,3.7,20.7,0.1,21.8,3.6
		c1,3-5,8.8-11.6,11.1c-1.9,0.7-7.6,2.3-29.9-4.5c-5.1-1.6-14.7,0.6-17.5-0.4"/>
	<path class="st0" d="M770.3,179.5c2.3-1.6,13.4-8,15.6-6.9c3.2,1.7,1,7.8,4.3,10.4c3.3,2.6,7.7-1.9,18-3.1
		c10.7-1.2,13.2,2.8,18.9-0.3c5.9-3.1,6.8-9.2,11-9.2c2.7,0,4,6.3,5.5,8.5"/>
	<circle class="st1" cx="738.5" cy="579.5" r="2.5"/>
	<circle class="st1" cx="1010.1" cy="620" r="2.5"/>
	<circle class="st1" cx="540.1" cy="601.4" r="2.5"/>
	<circle class="st1" cx="303.2" cy="627.5" r="2.5"/>
</g>
</svg>
