<?xml version="1.0" encoding="utf-8"?>
<!-- Generator: Adobe Illustrator 26.5.0, SVG Export Plug-In . SVG Version: 6.00 Build 0)  -->
<svg version="1.1" id="Laag_3" xmlns="http://www.w3.org/2000/svg" xmlns:xlink="http://www.w3.org/1999/xlink" x="0px" y="0px"
	 viewBox="0 0 1366 768" style="enable-background:new 0 0 1366 768;" xml:space="preserve">
<style type="text/css">
	.st0{fill:none;stroke:#000000;stroke-width:2;stroke-linecap:round;stroke-linejoin:round;stroke-miterlimit:10;}
</style>
<g>
	<path class="st0" d="M603.3,555.6c-6.2-0.6-17.3-2-24.8,0c-9.6,2.6-17.5,9.2-24,11.9c-9.1,3.7-31.3,0.7-42.9,0.3
		c-25.8-1-46.6,0.3-82.6,3.1c-63.5,5-79.4,28.4-93.8,21.8c-35.2-16.2-67.9-23.3-72.9-17.3c-2.6,3.2,23.8,18.4,25.7,36.9
		c1.8,17.8-15.7,40.7-6.9,49.5c11.3,11.4,27.8-33.7,62.8-44.4c26.2-8,50.2-3.7,74.1,6.2c114.3,47,181.1,2.3,201.3,11.1
		c23.8,10.4-16.4,30-14.8,37.1c2.7,12.3,36.4-4.8,60.5-24.7c16.2-13.3,27.1-26.1,35.6-28.9c63.8-21.2,176.2-7.2,184.2-43.4
		c2.8-12.8,40.9-17,34.7-26.5c-12.1-18.4-90.4-1-107.5-11.6s-16.5-18.3-27.9-24.4c-11.4-6.1-43.9-13.9-47.5-8.4s29,25,24.7,32.1
		c-4.2,6.8-35.8-3.2-84,11.1c-23.4,7-36.1,12.2-47.4,11.8"/>
	<path class="st0" d="M838.4,571c-18.6-13.8-33.7-14.4-40.7-13.9c-5.8,0.4-15.5,2.1-16.1,5.7c-0.4,2.9,5.1,5.2,15.7,13.2
		c5.4,4.1,9.6,7.7,12.1,10"/>
	<path class="st0" d="M642.3,367.6c-7.6-3.3-29.9-8.3-59.9-0.5c-30.2,7.9-49.5,23.3-53.3,29.3c-14.4,23.2-24.9,46.3-23.8,73.2
		c1.3,31.4-16.1,67-26.4,98.1"/>
	<path class="st0" d="M518.4,567.7c11.1-14.2,14.5-24,22.2-42c10.7-25,10.8-44.1,22.5-47c7.3-1.8,20.2,0.2,25.6,1"/>
	<path class="st0" d="M583.8,409c-3.2,11.6-3.1,21,1.5,49.6c7.7,48.6-0.4-2.3,11.8,65.8c0.9,4.7,1.1,23,10.4,40.7
		c4.5,8.6,8.7,11.8,11.1,11.1c2.7-0.7,2.3-6.1,5.9-7.4c3.7-1.3,6.7,3.3,8.9,2.2c3.3-1.7-3.6-13.6-11.1-24.2
		c-5.1-7.3-5.3-6.9-6.7-13.5c-2.3-10.5-4.2-72.4-2.2-88.8"/>
	<path class="st0" d="M644.5,454.2c6.8,3.6,27.9,10.3,22.9,22.9c-10,25.7-18.6,61.8-25.2,80.2"/>
	<path class="st0" d="M713.3,442.4c6.3,8.6,21.9,23.6,35.8,35.4c15.3,13,25.7,21.7,28.2,24.4c7.5,8.1-6.5,2.5-12.8,0
		c-8.9-3.5-13.7-1.9-16-4.7c-12-14.5-33.2-17.9-40.4-22.9c-7.2-4.9-47.9-15.8-63.6-20.4"/>
	<path class="st0" d="M613.2,483.6c11.3-0.3,16.1,3.2,16.1,9.1c0,5.6-4.6,23.3-13.7,40.6"/>
	<ellipse class="st0" cx="688.9" cy="395.1" rx="51.9" ry="53.6"/>
</g>
</svg>
