<?xml version="1.0" encoding="utf-8"?>
<!-- Generator: Adobe Illustrator 26.5.0, SVG Export Plug-In . SVG Version: 6.00 Build 0)  -->
<svg version="1.1" id="Laag_1" xmlns="http://www.w3.org/2000/svg" xmlns:xlink="http://www.w3.org/1999/xlink" x="0px" y="0px"
	 viewBox="0 0 1366 768" style="enable-background:new 0 0 1366 768;" xml:space="preserve">
<style type="text/css">
	.st0{fill:none;stroke:#1D1D1B;stroke-width:1.5462;stroke-linecap:round;stroke-linejoin:round;stroke-miterlimit:3.0224;}
	.st1{fill:none;stroke:#1D1D1B;stroke-width:1.5464;stroke-linecap:round;stroke-linejoin:round;stroke-miterlimit:3.0227;}
</style>
<g>
	<ellipse class="st0" cx="867.7" cy="382.1" rx="351.8" ry="322.2"/>
	<ellipse class="st0" cx="867.2" cy="376.1" rx="329.5" ry="301.9"/>
	<ellipse class="st0" cx="866.9" cy="373.5" rx="310" ry="284"/>
	<ellipse class="st0" cx="866.9" cy="373.5" rx="286.8" ry="262.7"/>
	<ellipse class="st0" cx="866.9" cy="373.5" rx="270.2" ry="247.5"/>
	<ellipse class="st0" cx="866.9" cy="373.5" rx="252.3" ry="231.1"/>
	<ellipse class="st0" cx="866.5" cy="370.3" rx="228.6" ry="209.4"/>
	<ellipse class="st0" cx="859.7" cy="382.8" rx="187.1" ry="171.4"/>
	<ellipse class="st0" cx="859.6" cy="383" rx="181.5" ry="166.2"/>
	<path class="st0" d="M736.6,260.7c-0.8,5.7-21.7,45.5-9.6,53.5c17.3,11.9,92.9,26.3,112.4,19.2c14.5-5.4,32.1-84.9,33.6-116.4"/>
	<line class="st0" x1="900.1" y1="220.8" x2="876.8" y2="300.1"/>
	<line class="st0" x1="857.8" y1="296.7" x2="876.8" y2="300.1"/>
	<line class="st0" x1="848.9" y1="321.1" x2="870" y2="326.3"/>
	<line class="st0" x1="841" y1="434.9" x2="870" y2="326.3"/>
	<line class="st0" x1="679" y1="397.8" x2="841" y2="434.9"/>
	<line class="st0" x1="830.3" y1="473.7" x2="841" y2="434.9"/>
	<line class="st0" x1="808.5" y1="471.8" x2="830.3" y2="473.7"/>
	<line class="st0" x1="804.1" y1="498.3" x2="825" y2="502.4"/>
	<line class="st0" x1="813.1" y1="543.6" x2="825" y2="502.4"/>
	<line class="st0" x1="804.1" y1="498.3" x2="793.2" y2="537.5"/>
	<path class="st0" d="M725.7,408.5c1.7-4.1,5.8-14.8,3.5-19.9c-2-4.2-4.7-4.2-6-8.2c-2-6.1,3.9-8.6,4-17.3c0-7.2-4-9.6-1.7-13.3
		c2.4-4,8.5-2.9,10.3-6.9c1.2-3-1.5-4.7-0.8-8.2c0.4-2.6,7.4-8.8,14.3-11.7"/>
	<line class="st0" x1="179.1" y1="310.5" x2="414.2" y2="284.7"/>
	<line class="st0" x1="530.4" y1="290.1" x2="414.2" y2="284.7"/>
	<line class="st0" x1="521" y1="327.1" x2="432.3" y2="318.7"/>
	<line class="st0" x1="183" y1="347.2" x2="432.3" y2="318.7"/>
	<line class="st0" x1="179.1" y1="310.5" x2="183" y2="347.2"/>
	<line class="st0" x1="233.6" y1="689.6" x2="183" y2="347.2"/>
	
		<ellipse transform="matrix(0.9934 -0.1148 0.1148 0.9934 -47.0978 32.4917)" class="st1" cx="258.6" cy="425.3" rx="37.2" ry="51.7"/>
	<ellipse class="st0" cx="273.8" cy="534.5" rx="36.6" ry="33.6"/>
	
		<ellipse transform="matrix(0.9941 -0.1084 0.1084 0.9941 -68.605 34.7884)" class="st1" cx="285.8" cy="648.7" rx="36.6" ry="58.1"/>
	<line class="st0" x1="253.6" y1="475.9" x2="255.6" y2="505.3"/>
	<line class="st0" x1="274.8" y1="472.8" x2="278.5" y2="501.3"/>
	<line class="st0" x1="266" y1="567.1" x2="269.2" y2="594.1"/>
	<line class="st0" x1="284.5" y1="566.4" x2="286.9" y2="591.5"/>
	<line class="st0" x1="516.7" y1="405.1" x2="336.1" y2="423.1"/>
	<line class="st0" x1="521.9" y1="441.9" x2="339.4" y2="461.2"/>
	<polygon class="st1" points="316.4,423.2 336.7,421.6 341.5,470.4 321.2,472.1 	"/>
	<polygon class="st1" points="361.5,487.3 452.9,479.8 471.7,670.2 380.2,677.7 	"/>
	<polygon class="st1" points="465.8,609.6 502.5,606.6 508.4,667.1 471.7,670.1 	"/>
	<polygon class="st1" points="345.8,616.5 374,614.2 380.7,681.8 352.4,684.2 	"/>
	<polygon class="st1" points="452.9,479.7 479.7,477.5 486.9,550.5 460.1,552.7 	"/>
	<line class="st0" x1="530.2" y1="473.2" x2="479" y2="477.4"/>
	<line class="st0" x1="563" y1="543.5" x2="486.2" y2="550.5"/>
	<line class="st0" x1="443" y1="412.4" x2="452.1" y2="479.7"/>
	<line class="st0" x1="378.5" y1="324.8" x2="390.1" y2="409.7"/>
	<line class="st0" x1="491.1" y1="401.4" x2="390.1" y2="409.7"/>
	<line class="st0" x1="480.7" y1="323.3" x2="491.1" y2="401.4"/>
	<line class="st0" x1="516.2" y1="399.3" x2="491.1" y2="401.4"/>
	<line class="st0" x1="348.1" y1="648.4" x2="321.7" y2="650.6"/>
	<line class="st0" x1="350.6" y1="674.5" x2="318.7" y2="677.2"/>
	<line class="st0" x1="221.7" y1="438.7" x2="181.7" y2="442.1"/>
	<line class="st0" x1="245.3" y1="472.4" x2="185.2" y2="477.3"/>
	<polygon class="st1" points="172.1,439.8 182.2,439 186.6,483.2 176.5,484.1 	"/>
	<polygon class="st1" points="147.2,445 172.3,442.9 176.1,480.7 151,482.8 	"/>
	<polygon class="st1" points="174.1,630.7 195.8,628.9 197.9,650.3 176.2,652.1 	"/>
	<polygon class="st1" points="195.1,621.3 206.1,620.4 209.5,654.9 198.5,655.8 	"/>
	<line class="st0" x1="316.4" y1="430.9" x2="295.1" y2="432.7"/>
	<line class="st0" x1="319.3" y1="460.8" x2="284.9" y2="463.6"/>
	<line class="st0" x1="206.1" y1="628.6" x2="250.1" y2="624.4"/>
	<line class="st0" x1="248" y1="646.1" x2="208.2" y2="649.3"/>
	<path class="st0" d="M900.1,220.8c99.2,22.7,161.7,114.5,134.9,204.7c-26.3,88.2-124.4,140.3-222,118"/>
</g>
</svg>
