<?xml version="1.0" encoding="utf-8"?>
<!-- Generator: Adobe Illustrator 26.5.0, SVG Export Plug-In . SVG Version: 6.00 Build 0)  -->
<svg version="1.1" id="Laag_3" xmlns="http://www.w3.org/2000/svg" xmlns:xlink="http://www.w3.org/1999/xlink" x="0px" y="0px"
	 viewBox="0 0 1366 768" style="enable-background:new 0 0 1366 768;" xml:space="preserve">
<style type="text/css">
	.st0{fill:none;stroke:#000000;stroke-width:2;stroke-miterlimit:10;}
</style>
<g>
	<path class="st0" d="M898.4,408c-17.4,2-23.5,25.5-24.4,29.1c-0.4,1.5-7.3,29.8,8.8,39.5c10.6,6.4,24.7,0.8,32.2-4.7
		c11.7-8.6,18.4-24.9,13.5-40C924.5,419.6,912.3,406.4,898.4,408z"/>
	<path class="st0" d="M925,461.3l-1.4,1.6c-1.8,2.3-0.9,9-2.9,13.7c-2.5,5.7-2.9,10.2-3.1,31.2c-0.2,17.4,0.1,19.9,1.6,23.4
		c3.8,8.9,8.3,7.7,10.9,15.1c4,11.1-5.1,16.9-2.6,31.7c1.5,8.8,6.5,17.1,9.4,16.6c3.2-0.5,1.3-11.8,6.8-30.1
		c4.1-13.9,6.9-13.1,7.8-21.8c1.4-14.3-5.9-18.5-2.1-29.1c2.6-7.4,7.2-8.6,7.8-16.1c0.3-4.1-0.8-7.2-3.1-13.5
		c-3.9-10.7-6.3-10.8-7.8-17.2c-2.1-8.6,1.8-10.9,1-20.8c-0.5-7.2-3.1-12.1-7.3-20.3c-3.9-7.7-3-14.9-16.3-23.9
		c-15.6-10.5-40.1,4.7-40.1,14.9"/>
	<path class="st0" d="M872.8,440c-42.9-11.4-83.4,7.1-108.3,7.3c-54.7,0.5-111.3-0.5-111.3-0.5c-2.5,4.3-4.2,20.7-0.3,20.7
		c0,0,31.9,0,53.3,1.8"/>
	<path class="st0" d="M623.5,662.1c20.8-2.9,53.7-10.2,68.5-19.1c24.5-14.7,25.9-35.3,67.7-85.4c39.6-47.5,80.4-62.2,71.4-80.8
		c-4.7-9.8-97,51.3-98.6,41.9c-0.7-4.2,101-44.3,83.8-58.4c-4.8-3.9-16.2,2.2-28.2,5.8c-31.7,9.5-27.6-28.6-127.6,24.3
		c-26.5,14-50.5,15.2-71.5,16.8c-20.3,1.5-41.3,2.8-50.2-11.9c-23.4-38.7-42.7-92.2-50.6-89.6c-18.6,6,9.4,25.9-18.6,75.2
		c-8.5,15-34.8,6.5-47.4-2.4c-34.3-24.3-48.5-36.6-68.9-69.8c-6.6-10.8,12.5-18,27.9-24.8c17.6-7.8,30.6-26.1,28.1-46.3
		c-0.8-6.2-16.6,9.4-40.9,10.7c-15.7,0.9-18.5-3.6-39-3.9c-20.4-0.3-23.5,3.9-38,3.9c-32.1-0.1-51.3-22.3-56.5-20.5
		c-7.5,2.6,12.1,37.7,45.3,61.5c15.4,11,36.8,6,52.1,21.1c11.9,11.7,14.2,50.8,27.2,91.8c22.4,70.9,105,134.2,177.1,154.7
		c1.4,0.4,6.5,1,7.8,1.4"/>
	<g>
		<g>
			<path class="st0" d="M898.2,408.5c-17.4,2-23.5,25.5-24.4,29.1c-0.4,1.5-7.3,29.8,8.8,39.5c10.6,6.4,24.7,0.8,32.2-4.7
				c11.7-8.6,18.4-24.9,13.5-40C924.3,420.1,912.1,406.9,898.2,408.5z"/>
			<path class="st0" d="M883.4,417.2c0-10.1,24.4-25.4,40.1-14.9c13.2,8.9,12.3,16.2,16.3,23.9c4.2,8.2,6.7,13,7.3,20.3
				c0.7,9.8-3.1,12.2-1,20.8c1.5,6.3,3.9,6.4,7.8,17.2c2.3,6.3,3.4,9.5,3.1,13.5c-0.6,7.6-5.2,8.8-7.8,16.1
				c-3.8,10.6,3.5,14.8,2.1,29.1c-0.9,8.8-3.7,7.9-7.8,21.8c-5.5,18.3-3.5,29.6-6.8,30.1c-2.8,0.5-7.8-7.8-9.4-16.6
				c-2.5-14.8,6.6-20.6,2.6-31.7c-2.6-7.3-7.1-6.2-10.9-15.1c-1.5-3.5-1.7-6-1.6-23.4c0.2-21,0.7-25.4,3.1-31.2
				c2-4.7,1.1-11.4,2.9-13.7"/>
			<path class="st0" d="M930.4,448.4c9.3-0.2,3.4,10.2-5.6,13.5"/>
			<path class="st0" d="M934,449.3c3.7-4.4,6.9-14.9,4.8-25"/>
			<circle class="st0" cx="910.7" cy="445.2" r="4"/>
			<circle class="st0" cx="888.6" cy="437.5" r="4"/>
			<circle class="st0" cx="888.2" cy="439.1" r="1.1"/>
			<circle class="st0" cx="909.5" cy="446.7" r="1.1"/>
			<path class="st0" d="M889.2,451.1c0,0.2,0.2,3.4,2.8,4.9c2.3,1.4,5.6,0.8,7.6-1.5"/>
			<path class="st0" d="M883.1,455.2c0.2,0.8,1.6,6.1,6.9,8.6c4.5,2.1,9.9,1.3,13.9-2.1"/>
			<path class="st0" d="M885.5,460c0.5,0.9,1,6.1,4.7,7.7c4.9,2,9.3-3.4,10-3.8"/>
			<path class="st0" d="M764.3,447.9c-54.7,0.5-111.3-0.5-111.3-0.5c-2.5,4.3-4.2,20.7-0.3,20.7c0,0,31.9,0,53.3,1.8"/>
			<path class="st0" d="M919,531.7c-14.7,16.6-27.3,33.6-34.5,40.5c-24,22.9-38.8,32.5-38.8,32.5l-12.5-10.8c0,0,6.3-15.8,25.4-35
				c7-7.1,17.6-17.8,30.4-31.3"/>
			<path class="st0" d="M878.6,577.7c2.3,7.6,7.3,23.2,7.8,36.8c0.6,15.4,0.9,23.3-3.9,29.4c-6.2,7.9-16,2.5-47.9,5
				c-33.7,2.6-38.5,9.5-52.6,4.6c-6.9-2.3-16.1-7.2-21.5-20.8c-3.1-7.8-3.4-12.6-5-23c-1.7-10.8-10.7-21.2-15.8-26.1"/>
			<path class="st0" d="M811.7,632.6c-1.8,0.5-3.1,0.1-2.9,2.1c0.4,4,7.2,7.6,12.9,7.1c7.9-0.7,12.6-9.2,15.9-15.1
				c2.8-5,8.4-15.2,4.1-23.3c-0.4-0.8-3.4-6.2-8.5-6.3c-3.9-0.1-7.5,3.1-8.8,6.3c-1.6,3.9,1.1,5.5,0,10.4c-1.3,5.9-6.2,8.2-5.2,10.1
				c0.8,1.4,4.2,1.2,6.3,0.5c6-1.9,7.2-10.1,7.9-9.9c0.8,0.2,0.8,8.4-4.7,14c-1.1,1.1-5.3,7.2-9.7,6.6
				C815.3,634.7,814.2,631.9,811.7,632.6z"/>
			<path class="st0" d="M632.7,454.2c-30.7,0.8-40.1,3.7-40.4,6.4c-0.2,1.6,2.2,3.4,4.8,5.3c6,4.3,12.3,5.5,17.2,5.9
				c14.5,1.4,30.6-2.9,37.1-4.9l-2.5-3.8c-2.7-0.3-8.2-1.2-12.6-5.5c-3.6-3.5-6-8.7-4.8-9.8c1-1,3.7,1.7,8.9,2.7
				c4.4,0.9,8.3,0.3,11-0.5"/>
			<path class="st0" d="M813.1,579.2c7.8,5.6,11.3,18,11.3,24.3"/>
			<path class="st0" d="M871.6,470.8c0.3,1.1,2.7,10.3,11.6,14.2c7.6,3.3,16.7,1.5,23.1-4.6"/>
		</g>
		<path class="st0" d="M623.3,662.6c20.8-2.9,53.7-10.2,68.5-19.1c24.5-14.7,25.9-35.3,67.7-85.4c39.6-47.5,80.4-62.2,71.4-80.8
			c-4.7-9.8-97,51.3-98.6,41.9c-0.7-4.2,101-44.3,83.8-58.4c-4.8-3.9-16.2,2.2-28.2,5.8c-31.7,9.5-27.6-28.6-127.6,24.3
			c-26.5,14-50.5,15.2-71.5,16.8c-20.3,1.5-41.3,2.8-50.2-11.9c-23.4-38.7-42.7-92.2-50.6-89.6c-18.6,6,9.4,25.9-18.6,75.2
			c-8.5,15-34.8,6.5-47.4-2.4c-34.3-24.3-48.5-36.6-68.9-69.8c-6.6-10.8,12.5-18,27.9-24.8c17.6-7.8,30.6-26.1,28.1-46.3
			c-0.8-6.2-16.6,9.4-40.9,10.7c-15.7,0.9-18.5-3.6-39-3.9c-20.4-0.3-23.5,3.9-38,3.9c-32.1-0.1-51.3-22.3-56.5-20.5
			c-7.5,2.6,12.1,37.7,45.3,61.5c15.4,11,36.8,6,52.1,21.1c11.9,11.7,14.2,50.8,27.2,91.8c22.4,70.9,105,134.2,177.1,154.7
			c1.4,0.4,6.5,1,7.8,1.4"/>
		<path class="st0" d="M567.5,640.1c-44.1,43.5-86.4,33.4-85.5,39.2c1.7,11.4,54.6,19.2,101,3.9c30.6-10.1,51.8-28.2,64.3-41.2"/>
		<circle class="st0" cx="693.7" cy="534.3" r="6"/>
		<circle class="st0" cx="695.7" cy="533.3" r="1.9"/>
	</g>
</g>
</svg>
