<?xml version="1.0" encoding="utf-8"?>
<!-- Generator: Adobe Illustrator 26.5.0, SVG Export Plug-In . SVG Version: 6.00 Build 0)  -->
<svg version="1.1" id="Laag_1" xmlns="http://www.w3.org/2000/svg" xmlns:xlink="http://www.w3.org/1999/xlink" x="0px" y="0px"
	 viewBox="0 0 1366 768" style="enable-background:new 0 0 1366 768;" xml:space="preserve">
<style type="text/css">
	.st0{fill:none;}
	.st1{font-family:'PTSans-Caption';}
	.st2{font-size:64.8039px;}
	.st3{fill:none;stroke:#000000;stroke-width:2.7002;stroke-miterlimit:5.193;}
</style>
<rect x="460.2" y="310.1" class="st0" width="447.6" height="91.1"/>
<text transform="matrix(1 0 0 1 460.2261 355.4581)" class="st1 st2">Dolfinarium</text>
<g>
	<g>
		<line class="st3" x1="869.5" y1="372.4" x2="466.8" y2="372.8"/>
		<g>
			<path d="M851,359.4c-0.4,0.6-0.2,1.4,0.5,1.9l17.5,11.1l-17.4,11.1c-0.6,0.4-0.8,1.3-0.5,1.9s1.3,0.8,1.9,0.5l19.2-12.2
				c0.4-0.3,0.6-0.7,0.6-1.2c0-0.5-0.3-0.9-0.6-1.2L852.9,359c-0.3-0.2-0.5-0.2-0.7-0.2C851.7,358.8,851.3,359,851,359.4z"/>
		</g>
	</g>
</g>
</svg>
