<?xml version="1.0" encoding="utf-8"?>
<!-- Generator: Adobe Illustrator 26.5.0, SVG Export Plug-In . SVG Version: 6.00 Build 0)  -->
<svg version="1.1" id="Laag_1" xmlns="http://www.w3.org/2000/svg" xmlns:xlink="http://www.w3.org/1999/xlink" x="0px" y="0px"
	 viewBox="0 0 1366 768" style="enable-background:new 0 0 1366 768;" xml:space="preserve">
<style type="text/css">
	.st0{fill:none;stroke:#000000;stroke-width:1.5263;stroke-linecap:round;stroke-linejoin:round;stroke-miterlimit:5.193;}
	.st1{stroke:#000000;stroke-width:1.5263;stroke-linecap:round;stroke-linejoin:round;stroke-miterlimit:5.1932;}
	.st2{fill:none;stroke:#000000;stroke-width:1.5263;stroke-linecap:round;stroke-linejoin:round;stroke-miterlimit:5.1932;}
	.st3{fill:#1D1E1C;stroke:#000000;stroke-width:1.5263;stroke-linecap:round;stroke-linejoin:round;stroke-miterlimit:5.193;}
</style>
<g id="springen">
	<g>
		<path class="st0" d="M287.3,223.9h62.6c3.9,0,7-3.1,7-7v-12.7c0-3.9-3.1-7-7-7h-62.6c-3.9,0-7,3.1-7,7v12.7
			C280.2,220.8,283.4,223.9,287.3,223.9z"/>
		<path class="st0" d="M287.3,275.3h62.6c3.9,0,7-3.1,7-7v-12.6c0-3.9-3.1-7-7-7h-62.6c-3.9,0-7,3.1-7,7v12.7
			C280.2,272.2,283.4,275.3,287.3,275.3z"/>
		<g>
			<g>
				<path class="st0" d="M651.1,546.2c-26.4-19.5,0.3-60.9,34.2-75.5c28.6-12.4,81.2-3,107.8,37.3"/>
				<path class="st0" d="M790.7,504.6c5.2,1.5,34.4-14.2,45.9,8.2"/>
				<path class="st0" d="M779.3,524.3c-3.1,20.2,4.9,33,15.3,30.8"/>
				<path class="st0" d="M836.5,512.7c1.8,3.3-7.3-2.6-12.1,3.2c-1.5,1.8-2.6,7-6.5,8.8c-4.4,2-11.5,0.5-14.3,2.6
					c-1.8,1.4,2.7,5.4,2.1,8.5c-0.7,3.1-6.6,5.1-8.6,6.5c-4.2,2.8,2.3,10.1-2.6,12.7"/>
				<path class="st0" d="M683.9,471.4c-3.4-6.3,13.4-32.7,28.5-30.5c9.3,2.7-9.8,20.2-1.4,24.3"/>
				<path class="st0" d="M695.5,513c11.2-17.6,54-23.7,55.3-10.5c0.3,3-20.3,7.7-35.9,25"/>
				
					<ellipse transform="matrix(0.8756 -0.4831 0.4831 0.8756 -169.605 386.42)" class="st1" cx="665.3" cy="522.5" rx="2.3" ry="3.1"/>
				
					<ellipse transform="matrix(0.8756 -0.4831 0.4831 0.8756 -168.4965 385.9361)" class="st2" cx="664.9" cy="520.1" rx="4.6" ry="6.1"/>
				
					<ellipse transform="matrix(0.8756 -0.4831 0.4831 0.8756 -176.7229 381.6457)" class="st1" cx="652.5" cy="533.9" rx="2.3" ry="3.1"/>
				
					<ellipse transform="matrix(0.8756 -0.4831 0.4831 0.8756 -175.6409 381.134)" class="st2" cx="652.1" cy="531.5" rx="4.6" ry="6.1"/>
				<path class="st0" d="M667.7,512.3c-1-1.8-5.3-3.2-7.9,0"/>
				<path class="st0" d="M647.6,522.3c-2.1,0.1-5.3,3.2-3.6,7"/>
				<path class="st0" d="M788.1,521.2c-21.8,9.4-24.3-0.8-45.3,0.5c-8.9,0.5-48.7,35.6-63.2,32.7c5.9-3.3,18.7-19.9,11.9-25.8
					l-1.5-0.5c-16.6-0.8-22.6,19.8-24.2,31.2c-0.9,6.7-3.9,10.8-11.1,9.2c-6.9-2.7-4.2-6.6-3.1-10.5c1.3-5,2.1-9.9-0.5-11.9"/>
			</g>
			<g>
				<polygon class="st0" points="532.5,508.4 532.5,497.3 499.4,497.3 499.4,489.3 366.7,483.4 367.4,502.9 				"/>
				<line class="st0" x1="500.1" y1="479.4" x2="499.4" y2="489.3"/>
				<path class="st0" d="M519.4,481.1l-19.4-1.7c-0.9-26-5.4-56.5-1.5-67.6c3.9-11,30.5-6.6,45.7-0.5"/>
				<line class="st0" x1="519.4" y1="497.3" x2="519.4" y2="481.1"/>
				<line class="st0" x1="551.3" y1="483.4" x2="519.4" y2="481.1"/>
				<line class="st0" x1="551.1" y1="498.5" x2="551.3" y2="483.4"/>
				<line class="st0" x1="532.5" y1="497.3" x2="551.1" y2="498.5"/>
				<path class="st0" d="M506.9,480c-1.4-34.3-4.6-58.7-1.6-67.2c1.5-4,11.8-3.5,12.6-0.2c2.9,11.6-1,35-1.5,68.1"/>
				<path class="st0" d="M524.9,481.1c0.5-45.3-2.4-62.5,2.3-66c7.3-5.5,11.3-0.5,13.6,2.7c4.8,6.5,5.1,30,2.3,64.9"/>
				<path class="st0" d="M544.2,404.7c-0.1,4.5-0.6,41.9,11.2,44.8c3,0.7,9.6-0.8,7.9-2.6c-10.1-10.1-9.4-20.6-7.9-41.5"/>
				<path class="st0" d="M531.8,407.3c7.3-16.8,33.2-12.2,35.2-9.8c1.6,2-4,2.9-0.7,8.1c3.4,5.3,7.5,1.4,8.3,2.6
					c1.3,2-1.9,4.7-1.8,8.2c0.4,10.8,19.6,21.2,31.6,29.3c1.1,0.7-0.6,8.9-1.2,8.9c-13.3-0.8-33.7-21.7-38.4-33.6
					c-1.3-3.4-6.7,12.4-7.7,17.2"/>
				<path class="st0" d="M524.7,423c6,5.5,8.5,6.9,19.6,8.1"/>
				<path class="st0" d="M535.7,435.6c3.2,12.4,1.1,25.9-2.8,37"/>
				<path class="st0" d="M525,473.3c7.3-1.4,11.2-0.9,18.5,2.9"/>
				<line class="st0" x1="549.4" y1="482.3" x2="550.1" y2="444.8"/>
				<path class="st0" d="M567.2,398.4c0.3,0.2,4,1.8,6.2,1c2.6-1,3.4-4.3,3.1-4.6c-5.6-3.6-6.7-8.2-4.4-10.5
					c5.4-5.1,5.7,0.3,9.2,0.7c2.8,0.3-0.4-6,2.7-7.2c2.4-1,3.4,1.8,5.8,1c2.9-0.9,3.7-6.2,3.7-6.7c0.7-4.7-1.7-6.8-0.4-8.4
					c1.8-2.2,8.7-1,9.8,2.1c0.8,2.1-2,3.6-1.4,5.9c0.9,3.6,6.1,2.6,10.8,6.9c2.6,2.4,0.8,8.1,0.5,8.9c-1.5,3.1-2.1,3.1-3.3,6.3
					c-1.5,3.9-0.5,5.8-1.1,8.6c-1.1,6-7.9,11.1-14.6,12.6c-10.1,2.3-18.4-4.3-19.1-4.9"/>
				<path class="st0" d="M584,377.9c-1.1-0.2-4-1.4-4.4-2.5c-0.4-1.2,1.1-2,0.8-3.4c-0.3-1.4-1.8-1.3-3.6-3.3
					c-1.1-1.3-2.4-3.6-1.7-4.7c0.6-1,2.2-0.2,3.4-1.4c1.4-1.4-1.1-3.7,1.1-4.2c4.5-1.1,3,4.7,6.3,4.1c1.8-0.3,0-6.3,2.5-7.9
					c1.4-0.8,2.5,0.4,6.3,1.1c6.5,1.1,9.2-1.4,11.6,0.8c0.8,0.7,1.6,2.2,3.2,5.2c1.1,1.9,0.8,1.8,1.1,2.2c2.8,3.9,8.5-4.7,10.9,4.2
					c1.1,4.3-1.5,3.7-2,4.8c-1.2,3.4,4.7,2.4,3.9,7.7c-0.8,4.8-3.6,2.3-10.1,3.1"/>
				<path class="st0" d="M611.9,390.3c0.1,0,2.1,0.4,2.7,2.1c0.6,1.6-0.2,3.7-1.9,4.3c-1.6,0.5-3.1-0.7-3.1-0.8"/>
				<line class="st0" x1="575.8" y1="387" x2="577.7" y2="389.1"/>
				<line class="st0" x1="600.4" y1="377.6" x2="596.4" y2="377.6"/>
				<circle class="st3" cx="597.4" cy="387.6" r="1.1"/>
				<circle class="st3" cx="605.9" cy="392" r="1.1"/>
				<path class="st0" d="M602.1,395.2c1.9-1,4-0.3,4.7,1.1c0.8,1.5-0.2,3.5-1.5,4.1c-1.6,0.8-4.4-0.5-6-3.7"/>
				<circle class="st0" cx="597.2" cy="386.4" r="2.7"/>
				<circle class="st0" cx="605.9" cy="390.6" r="2.6"/>
				<path class="st0" d="M599.4,405.7c-12.7,1.8-13.2-3.3-11.6-10.7c1-4.6-8,8.5-5.6,11.7c1.5,2,6,0.8,10-0.8"/>
				<path class="st0" d="M590.6,393.3c-3.1,1.1-5-0.5-5.6-1"/>
				<line class="st0" x1="608.5" y1="382" x2="610.8" y2="384.4"/>
				<path class="st0" d="M606,446.7c0.8,0.6,2.3,1.3,3.7,0.9c3-0.8,2.7-6,5.1-6.6c2.6-0.7,7.4,3.4,7.2,7.9c-0.1,2.7-1.8,5.6-3.4,5.6
					c-2.2-0.1-2.9-6-3.9-5.8c-0.9,0.2-0.2,5-2.1,9.2c-1.1,2.2-2.4,4.7-5.1,4.7c-4.5-0.1-2.8-3.5-2.6-7.6"/>
				<path class="st0" d="M757.9,476.9c-14-32.5-42.7-59-75.8-59c-24,0-44.4,10.1-59.9,29.1"/>
				<path class="st0" d="M610.2,466.9c-7.2,14.7-12.7,32.2-12.7,50.4c0,55,38,99.6,84.8,99.6c41.5,0,76.1-35.1,83.4-81.4
					c0.9-5.9,0.7-3.8,1.2-10.8"/>
				<path class="st0" d="M770.6,484.6c-13.4-42.1-48.8-78.2-88.9-78.2c-25.8,0-49.8,14.6-66.8,34.6"/>
				<path class="st0" d="M604.4,456.6c-9.5,17.5-16.6,39.1-16.6,61.4c0,61.6,42,111.6,93.9,111.6c47.2,0,86.2-41.4,92.9-95.4
					c0.6-5.3,0.5-3.1,1-9.1"/>
				<ellipse class="st0" cx="623.5" cy="454.9" rx="4.4" ry="3.1"/>
				<ellipse class="st0" cx="618.4" cy="460.2" rx="4.4" ry="3.1"/>
				<ellipse class="st0" cx="613.9" cy="465.3" rx="4.4" ry="3.1"/>
				<path class="st0" d="M563.3,448.1c1.9-0.8,5-1.4,5.8-0.3c0.8,1.2,0.1,3.1,0,3.3c-0.8,1.8-2.1,1.8-2.7,3.3
					c-0.6,1.8,0.8,2.7,0.3,4.1c-0.9,2-5.2,1.8-6.3,1.8c-1.9-0.1-6.9-0.2-7.8-3.1c-0.5-1.9,0.9-6,3.7-7.6"/>
			</g>
			<path class="st0" d="M277.6,483.6h82c3.9,0,7.2-0.2,7.2-0.2l-0.2-291.5c0-3.9-3.1-7-7-7h-82c-3.9,0-7,3.1-7,7v284.6
				C270.6,480.4,273.7,483.6,277.6,483.6z"/>
			<line class="st0" x1="367.4" y1="502.9" x2="342.9" y2="483.6"/>
			<path class="st0" d="M287.3,324.2h62.6c3.9,0,7-3.1,7-7v-12.7c0-3.9-3.1-7-7-7h-62.6c-3.9,0-7,3.1-7,7v12.7
				C280.2,321.1,283.4,324.2,287.3,324.2z"/>
			<path class="st0" d="M287.3,373.1h62.6c3.9,0,7-3.1,7-7v-12.7c0-3.9-3.1-7-7-7h-62.6c-3.9,0-7,3.1-7,7V366
				C280.2,369.9,283.4,373.1,287.3,373.1z"/>
			<path class="st0" d="M287.3,417.2h62.6c3.9,0,7-3.1,7-7v-12.7c0-3.9-3.1-7-7-7h-62.6c-3.9,0-7,3.1-7,7v12.7
				C280.2,414,283.4,417.2,287.3,417.2z"/>
			<path class="st0" d="M287.3,463.7h62.6c3.9,0,7-3.1,7-7V444c0-3.9-3.1-7-7-7h-62.6c-3.9,0-7,3.1-7,7v12.7
				C280.2,460.5,283.4,463.7,287.3,463.7z"/>
		</g>
	</g>
</g>
</svg>
